<svg height="500" viewBox="0 0 500 500" width="500" xmlns="http://www.w3.org/2000/svg"><g fill="none" fill-rule="evenodd" transform="translate(30.092593 30.092593)"><path d="m220.36868 425.314697c-113.187416 0-204.9426358-91.75184-204.9426358-204.946017 0-113.187416 91.7552198-204.9426358 204.9426358-204.9426358 113.187417 0 204.946017 91.7552198 204.946017 204.9426358 0 113.194177-91.7586 204.946017-204.946017 204.946017m0-425.314697c-121.7082438 0-220.36868 98.6604362-220.36868 220.36868 0 121.711625 98.6604362 220.372061 220.36868 220.372061 121.711625 0 220.372061-98.660436 220.372061-220.372061 0-121.7082438-98.660436-220.36868-220.372061-220.36868" fill="#009c57"/><g transform="translate(52.777778 76.388889)"><path d="m274.433565 129.37952-95.176668-.298665.366176-117.3140694c.022484-6.45179208-5.238877-11.74746417-11.695125-11.76673283-6.453037-.01926867-11.74973 5.24107752-11.769003 11.69286963l-.369387 117.3172816-95.1477589-.298665c-8.2325199-.025691-14.9907025 6.686228-15.013187 14.91716l-.3340546 106.427273c-.0289086 8.234144 6.6875172 14.987812 14.9200371 15.013503l213.7917654.671192c8.235732.025692 14.990703-6.689439 15.016399-14.920371l.334055-106.427273c.022485-8.234144-6.690729-14.9846-14.923249-15.013503" fill="#fbba16"/><path d="m308.474255 35.696224c3.828057 3.1231951 2.558466 4.5753199.13178 7.9367794-7.971102 11.0374361-21.872318 27.2136551-22.936203 36.8247247-1.202094 10.8474685 2.175982 26.8208409-10.147084 37.8936949-5.104077-.30588-65.321252-.206067-65.321252-.206067 12.027364-15.255359 26.712834-42.5527288 49.864385-48.5962724 14.32227-3.7349551 24.360073-20.3039883 33.555768-33.6049359 4.753734-6.8806887 8.340729-5.563795 14.852606-.2479237" fill="#a71e59"/><g fill="#bbd43a"><path d="m245.821414 63.1532115c-9.705955 5.9905389-15.605025 12.5670044-21.104213 19.3035591-12.457149 15.2725123-25.912404 35.0147154-25.912404 35.0147154l-6.193385-.022412c8.506307-29.8214214-5.089708-50.3480621 8.157609-58.3461199 8.890194-5.3693927 12.975396 3.0705114 25.544512-3.1697667 15.768177-7.8283632 19.507881 7.2200241 19.507881 7.2200241"/><path d="m316.61865 90.3970428c2.114548 1.0986267 3.060783 3.7321463 2.590884 6.0472234-1.83132 8.9800788 11.461038 16.3233638 1.728328 23.1061888-9.66834 6.738244-7.161137 11.139119-12.822459 11.120013-7.02596-.019107-3.443783-8.41962-19.198285-13.005193 3.40838-5.958059 5.310507-8.3623 6.044322-26.1345768 7.032398-3.6939332 15.944393-4.0983552 21.65721-1.1336554"/><path d="m70.3596223 35.0574874c15.4014241-9.6730499 12.6929198 12.7385437 19.997577 8.3657069 3.8966689-2.334541 7.6080863-.4186074 8.055245 2.5502848 1.1083148 7.2934281-8.1670347 20.1575539-7.8412476 28.1626145.0191639.4250475-.3098172.7534932-.72823.7019723-1.5586675-.1867632-2.7085042-.1771031-8.3490921 1.2300616-5.0337297 1.2558221-11.0671785 5.3259736-11.0671785 5.3259736-7.4547747-2.5953656-14.3218551-6.7782191-21.9363294-11.0125934-5.61823-3.1234549-7.001228-5.5191769-7.0427499-10.1109776-.0479099-5.5996783 4.3374396-6.7009376 2.6414305-10.365362-2.3411954-5.071589-4.6887787-11.0415739-1.9770804-15.9360598 1.5043697-2.4118224 4.5929589-5.0554888 7.6272502-4.9266865 10.4730962-.2125238 11.935944 11.4698414 20.6204052 6.0150656"/><path d="m30.1668384 55.497074c.6953423 1.4106783 1.0236984 2.1176168.1706164 3.6626454-2.8328758 5.1085106-.5697943 10.6040781 3.1483552 15.7125887 6.1550666 8.4416778 23.9378008 13.3422653 32.0372503 15.9365058l-2.2566431 6.9478304c-18.3106792-4.7758337-29.7806072-3.2627933-43.5812193.0511811 0 0-7.7195867 3.2723896-12.52259888-1.0588084-4.82554644-4.3567887-2.52705401-9.7755845.04828766-11.9571777 0 0-10.81965417-6.7239131-5.95225842-16.5538775 3.8050673-7.6899559 11.13513354-6.551177 11.13513354-6.551177s-1.6868488-8.4864613 6.1164364-12.3794215c4.7193136-2.3511304 8.8076685.5917811 8.8076685.5917811 1.236164 2.725392 2.1246569 4.1360703 2.8489717 5.5979296"/><path d="m60.6857874 109.529087-.0226597 7.735225c-17.347605-.618177-25.1425356 5.361809-29.6162042 18.631804-4.8815429 17.699734-34.08987285 10.153485-24.16816928-13.69279 7.58128218-16.799693 34.87325038-18.545323 53.80703318-12.674239"/></g><path d="m143.177524 81.1080747c-6.54096-.3429348-13.261388 1.2499493-17.972418 4.6857075-13.873501-8.7400303-24.196104-6.5670415-23.103273-8.1759506 5.932051-8.7496454 24.458896-16.1435764 41.207087-8.3073556 0 0 .176263 9.1086051-.131396 11.7975987" fill="#f05c2b"/><path d="m116.337005 92.0653166c-.91212.9087358-1.763217 1.7757276-2.553292 2.6202418-8.366446 8.9717596-9.188638 21.9059916-9.188638 21.9059916l-32.344905-.102754c-.770805-4.428081-.76117-9.475899.0321168-12.934233 2.7427812-11.9387977 10.7366714-17.808653 23.7825461-17.7604868 7.1781221.0288997 14.5296741 1.9362816 20.1918791 5.2693832.346863.2055092.362921.716071.080293 1.0018572" fill="#f05c2b"/><path d="m143.275879 117.031518-27.181329-.082747c.81057-14.398086 9.89344-22.8828989 16.836149-24.9675024 2.434914-.7319981 6.60951-1.3844312 10.42848-1.34624z" fill="#f05c2b"/></g></g></svg>